<?xml version="1.0" standalone="no"?>
<!DOCTYPE svg PUBLIC "-//W3C//DTD SVG 20010904//EN"
 "http://www.w3.org/TR/2001/REC-SVG-20010904/DTD/svg10.dtd">
<svg version="1.0" xmlns="http://www.w3.org/2000/svg"
 width="2084.000000pt" height="2084.000000pt" viewBox="0 0 2084.000000 2084.000000"
 preserveAspectRatio="xMidYMid meet">

<g transform="translate(0.000000,2084.000000) scale(0.100000,-0.100000)"
fill="#000000" stroke="none">
<path d="M9950 19993 c-25 -1 -119 -7 -210 -13 -361 -23 -822 -85 -1205 -161
-1517 -303 -2925 -964 -4138 -1942 -502 -405 -1029 -932 -1434 -1434 -1155
-1432 -1867 -3138 -2067 -4953 -41 -367 -47 -484 -53 -935 -7 -554 10 -878 73
-1365 304 -2382 1506 -4571 3362 -6122 1235 -1033 2714 -1738 4292 -2047 994
-194 2026 -230 3030 -105 1320 164 2572 592 3713 1271 1026 610 1944 1422
2679 2370 546 704 991 1481 1320 2303 685 1709 861 3596 507 5410 -575 2940
-2502 5445 -5204 6766 -1148 561 -2367 878 -3670 954 -152 9 -881 11 -995 3z
m1000 -834 c1981 -115 3870 -911 5350 -2255 173 -157 535 -523 676 -684 672
-766 1185 -1595 1559 -2520 691 -1705 821 -3621 370 -5422 -779 -3104 -3239
-5564 -6343 -6343 -1255 -315 -2571 -349 -3845 -99 -1326 260 -2584 833 -3658
1665 -487 377 -981 855 -1375 1329 -1112 1337 -1800 2974 -1973 4690 -33 329
-44 540 -44 905 0 365 11 577 44 904 157 1553 737 3047 1670 4302 1475 1984
3694 3250 6130 3498 470 48 956 58 1439 30z"/>
<path d="M6207 14083 c-4 -3 -7 -82 -7 -175 0 -126 3 -170 13 -173 6 -2 84
-11 172 -20 410 -40 593 -94 715 -211 97 -92 146 -213 181 -449 9 -59 14 -623
20 -2155 4 -1141 10 -2097 14 -2125 3 -27 13 -124 21 -215 68 -735 283 -1331
641 -1775 100 -125 308 -327 433 -422 262 -198 554 -338 915 -437 701 -192
1625 -191 2314 4 448 127 800 327 1096 624 565 566 839 1312 894 2436 6 113
13 819 16 1570 7 1727 23 2367 64 2567 74 357 322 524 871 587 74 9 150 16
168 16 l32 0 0 180 0 180 -1500 0 -1500 0 0 -178 0 -178 153 -12 c739 -58
1029 -253 1086 -732 12 -99 37 -469 52 -785 6 -121 13 -783 16 -1471 6 -1412
0 -1640 -52 -2059 -153 -1223 -642 -1884 -1550 -2098 -337 -79 -814 -99 -1159
-47 -746 112 -1289 503 -1606 1155 -172 352 -258 693 -311 1225 -8 79 -13 612
-16 1710 -5 1661 4 2308 32 2490 69 442 246 561 908 611 l157 12 0 179 0 178
-1638 0 c-901 0 -1642 -3 -1645 -7z"/>
</g>
</svg>
